<svg width="397" height="75" viewBox="0 0 397 75" fill="none" xmlns="http://www.w3.org/2000/svg">
<path d="M174.473 32.7472C171.649 35.5518 170.236 38.9589 170.236 42.9684C170.236 46.9677 171.659 50.3748 174.504 53.1895C177.349 56.0144 180.771 57.4268 184.771 57.4268C187.94 57.4268 190.739 56.5409 193.169 54.769C195.549 53.0579 197.29 50.6937 198.394 47.6765H191.089C189.489 50.1875 187.469 51.443 185.029 51.443C182.649 51.443 180.69 50.6026 179.151 48.9218C177.643 47.2917 176.888 45.292 176.888 42.9228C176.888 40.5131 177.592 38.5083 178.999 36.9086C180.467 35.2582 182.381 34.433 184.74 34.433C186.218 34.433 187.459 34.7671 188.461 35.4354C189.433 36.0732 190.294 37.0604 191.043 38.3969H198.394C197.442 35.4101 195.7 33.0003 193.169 31.1677C190.638 29.3452 187.813 28.4492 184.695 28.4795C180.685 28.4795 177.278 29.9021 174.473 32.7472ZM159.362 20.3239V26.2925H165.832V20.3239H159.362ZM165.832 29.3908H159.362V56.5459H165.832V29.3908ZM227.766 29.3908H220.37L213.794 46.7956L207.658 29.3908H200.216L210.179 54.0248L205.183 65.6129H212.154L227.766 29.3908ZM74.3122 37.7894V37.7439C74.3122 27.4974 70.6875 18.7494 63.438 11.5C56.1885 4.24035 47.4304 0.610558 37.1637 0.610558V0.549805C26.9172 0.549805 18.1541 4.18467 10.8742 11.4544C3.62474 18.7342 0 27.4974 0 37.7439V74.9228H37.1637C47.4304 74.9228 56.1885 71.293 63.438 64.0334C70.6875 56.7839 74.3122 48.0359 74.3122 37.7894ZM20.7005 37.7439C20.7005 33.218 22.3154 29.3604 25.5453 26.171C28.765 22.9412 32.6378 21.3262 37.1637 21.3262C41.7098 21.3262 45.5775 22.9412 48.7669 26.171C51.9968 29.3604 53.6117 33.218 53.6117 37.7439C53.6117 42.3001 51.9968 46.1729 48.7669 49.3623C45.5775 52.5921 41.7098 54.2071 37.1637 54.2071H20.7005V37.7439ZM30.3294 34.4634L27.2311 37.5616L35.5538 45.8844L47.1267 34.2508L44.0284 31.2133L35.5538 39.6879L30.3294 34.4634ZM154.183 20.3239H147.652V56.5459H154.183V20.3239ZM119.191 32.6865C116.356 35.5316 114.939 38.9437 114.939 42.9228C114.939 46.9222 116.356 50.3444 119.191 53.1895C122.006 56.0144 125.418 57.4268 129.427 57.4268H129.989C133.898 57.3053 137.203 55.8372 139.907 53.0225C142.61 50.1672 143.901 46.7804 143.78 42.862V42.7861C143.78 38.8171 142.372 35.4354 139.558 32.6409C136.743 29.8363 133.366 28.4492 129.427 28.4795C125.418 28.4795 122.006 29.8818 119.191 32.6865ZM121.454 42.9684C121.454 40.7004 122.208 38.726 123.717 37.0453C125.256 35.3038 127.159 34.433 129.427 34.433C131.655 34.433 133.538 35.3038 135.077 37.0453C136.525 38.726 137.249 40.7257 137.249 43.0443C137.249 45.3325 136.54 47.2917 135.123 48.9218C133.614 50.6026 131.716 51.443 129.427 51.443C127.129 51.443 125.21 50.6026 123.671 48.9218C122.193 47.2917 121.454 45.3072 121.454 42.9684ZM109.532 39.8701C111.851 37.8755 113.01 35.0911 113.01 31.517C113.01 27.953 111.866 25.1788 109.577 23.1943C108.16 21.9489 106.575 21.1288 104.824 20.7339C103.609 20.4606 101.812 20.3239 99.4323 20.3239H89.8642V56.5459H96.5466V42.7557H99.3867C101.776 42.7557 103.578 42.619 104.793 42.3457C106.525 41.9407 108.104 41.1155 109.532 39.8701ZM98.9159 26.5811C101.154 26.5811 102.819 26.8494 103.913 27.386C105.482 28.1353 106.267 29.5123 106.267 31.517C106.267 33.4813 105.436 34.8633 103.776 35.6632C102.652 36.1796 100.961 36.4378 98.7033 36.4378H96.5466V26.5811H98.9159ZM372.761 32.6865C370.037 35.4809 368.675 38.9234 368.675 43.0139C368.625 46.0818 369.47 48.8662 371.212 51.367C372.953 53.8679 375.257 55.6246 378.122 56.6371C381.808 57.9128 385.407 57.7103 388.92 56.0296C392.434 54.3387 394.823 51.6505 396.089 47.965H389.27C388.632 49.1091 387.761 50.0002 386.657 50.638C385.523 51.2455 384.308 51.5138 383.012 51.443C381.676 51.443 380.425 51.1291 379.261 50.5013C378.097 49.8635 377.135 48.9725 376.375 47.8284C375.981 47.2006 375.697 46.5526 375.525 45.8844H396.636C396.879 44.8111 397 43.7075 397 42.5735V42.2697C396.98 38.402 395.593 35.1215 392.839 32.4283C390.115 29.7249 386.819 28.3935 382.952 28.434C378.902 28.434 375.505 29.8515 372.761 32.6865ZM378.046 36.0733C379.383 34.9798 381.038 34.433 383.012 34.433C384.865 34.3115 386.5 34.8583 387.918 36.0733C389.346 37.268 390.156 38.7969 390.348 40.6599H375.343C375.808 38.7159 376.71 37.187 378.046 36.0733ZM256.622 56.5459H264.019L248.877 20.3239H243.652L228.541 56.5459H235.952L239.825 47.1905H252.75L256.622 56.5459ZM246.128 29.7857H246.28L250.365 40.8877H242.042L246.128 29.7857ZM268.332 35.0101C266.793 37.4401 266.039 40.0929 266.069 42.9684C266.069 46.9171 267.39 50.2988 270.033 53.1136C272.696 55.9891 275.986 57.4268 279.905 57.4268C281.677 57.4268 283.317 57.0876 284.825 56.4093C286.476 55.66 287.721 54.5868 288.562 53.1895H288.698V56.5459H294.652V20.3239H288.136V31.7752C286.071 29.5781 283.327 28.4795 279.905 28.4795C278.022 28.4795 276.255 28.8693 274.604 29.649C271.952 30.8133 269.861 32.6004 268.332 35.0101ZM272.6 42.7557C272.6 40.5687 273.379 38.6349 274.938 36.9541C276.538 35.2734 278.427 34.433 280.603 34.433C282.861 34.433 284.78 35.2936 286.359 37.0149C287.888 38.6956 288.653 40.6649 288.653 42.9228C288.653 45.2212 287.888 47.2107 286.359 48.8915C284.78 50.5925 282.861 51.443 280.603 51.443C278.305 51.443 276.376 50.5621 274.817 48.8003C273.339 47.0791 272.6 45.0642 272.6 42.7557ZM333.228 29.3908H326.697V56.5459H333.228V29.3908ZM344.178 42.9228C344.178 40.5434 344.892 38.5539 346.319 36.9541C347.788 35.2734 349.701 34.433 352.06 34.433C353.518 34.433 354.764 34.7671 355.796 35.4354C356.758 36.0732 357.619 37.0604 358.378 38.3969H365.683C364.752 35.4101 363.026 33.0003 360.505 31.1677C357.983 29.3452 355.169 28.4492 352.06 28.4795C348.051 28.4795 344.644 29.9021 341.839 32.7472C338.994 35.5518 337.587 38.9589 337.617 42.9684C337.617 46.9677 339.04 50.3748 341.885 53.1895C344.7 56.0144 348.107 57.4268 352.106 57.4268C355.184 57.4774 357.983 56.5915 360.505 54.769C363.005 52.9668 364.732 50.6026 365.683 47.6765H358.378C356.779 50.1875 354.774 51.443 352.364 51.443C349.995 51.443 348.02 50.6026 346.441 48.9218C344.932 47.2917 344.178 45.292 344.178 42.9228ZM326.697 20.3239V26.2925H333.228V20.3239H326.697ZM323.918 29.3908H316.765L310.599 47.4183H310.447L303.886 29.3908H296.839L307.789 56.5459H312.892L323.918 29.3908Z" fill="#0F5499"/>
</svg>
